# xmcd
#
# Track frame offsets:
#	150
#	15854
#	32775
#
# Disc length: 630 seconds
#
# Revision: 0
# Processed by: cddbd v1.5.1PL2 Copyright (c) Steve Scherf et al.
# Submitted via: dBpowerAMP V4.0
#
DISCID=14027403
DTITLE=Janis Ian - Standing in The Shadows of Love
DYEAR=2005
DGENRE=
TTITLE0=Standing in The Shadows of Love
TTITLE1=All Those Promises
TTITLE2=Crocodile song
EXTD=Radiostation, Broadcast
EXTT0=
EXTT1=
EXTT2=
PLAYORDER=
